<svg width="" height="" viewBox="0 0 39 36" fill="" xmlns="http://www.w3.org/2000/svg">
<g filter="url(#filter0_d_114_3954)">
<path d="M4.12925 14.0848C4.12925 11.4977 4.50479 9.21668 5.25587 7.24162C6.03477 5.29437 7.11966 3.7644 8.51055 2.65169C9.92926 1.53897 11.5844 0.982618 13.476 0.982619C15.3676 0.982619 16.9811 1.55288 18.3163 2.69341C19.6516 3.83394 20.6669 5.39174 21.3624 7.3668C22.0578 9.34186 22.4055 11.5812 22.4055 14.0848C22.4055 16.5884 22.0578 18.8277 21.3624 20.8028C20.6669 22.7779 19.6516 24.3356 18.3163 25.4762C16.9811 26.6167 15.3676 27.187 13.476 27.187C11.5844 27.187 9.92925 26.6306 8.51055 25.5179C7.11966 24.4052 6.03477 22.8613 5.25587 20.8862C4.50479 18.939 4.12925 16.6718 4.12925 14.0848ZM10.7638 14.0848C10.7638 15.0306 11.0281 15.7956 11.5566 16.3798C12.113 16.9918 12.864 17.2977 13.8098 17.2977C14.7556 17.2977 15.4928 16.9918 16.0213 16.3798C16.5777 15.7956 16.8559 15.0306 16.8559 14.0848C16.8559 13.139 16.5777 12.3601 16.0213 11.7481C15.4928 11.1639 14.7556 10.8718 13.8098 10.8718C12.864 10.8718 12.113 11.1639 11.5566 11.7481C11.0281 12.3601 10.7638 13.139 10.7638 14.0848ZM17.6487 14.0848C17.6487 11.8037 17.9686 9.74522 18.6084 7.90925C19.276 6.10109 20.2218 4.66847 21.4458 3.6114C22.6976 2.55432 24.1998 2.02579 25.9523 2.02579C27.7326 2.02579 29.2626 2.54041 30.5422 3.56967C31.8497 4.59893 32.865 6.01764 33.5883 7.82579C34.3115 9.63395 34.6732 11.7203 34.6732 14.0848C34.6732 16.4493 34.3115 18.5356 33.5883 20.3438C32.865 22.152 31.8497 23.5707 30.5422 24.5999C29.2626 25.6292 27.7326 26.1438 25.9523 26.1438C24.1998 26.1438 22.6976 25.6153 21.4458 24.5582C20.2218 23.5011 19.276 22.0685 18.6084 20.2603C17.9686 18.4522 17.6487 16.3937 17.6487 14.0848ZM23.0314 14.0848C23.0314 14.7524 23.254 15.3088 23.6991 15.7539C24.1441 16.1989 24.7561 16.4215 25.535 16.4215C26.3417 16.4215 26.9537 16.1989 27.371 15.7539C27.8161 15.3088 28.0386 14.7524 28.0386 14.0848C28.0386 13.4172 27.8161 12.8608 27.371 12.4157C26.9537 11.9706 26.3417 11.7481 25.535 11.7481C24.7561 11.7481 24.1441 11.9706 23.6991 12.4157C23.254 12.8608 23.0314 13.4172 23.0314 14.0848Z" fill="#46BEF1"/>
</g>
<defs>
<filter id="filter0_d_114_3954" x="0.132812" y="0.982422" width="38.5391" height="34.2051" filterUnits="userSpaceOnUse" color-interpolation-filters="sRGB">
<feFlood flood-opacity="0" result="BackgroundImageFix"/>
<feColorMatrix in="SourceAlpha" type="matrix" values="0 0 0 0 0 0 0 0 0 0 0 0 0 0 0 0 0 0 127 0" result="hardAlpha"/>
<feOffset dy="4"/>
<feGaussianBlur stdDeviation="2"/>
<feComposite in2="hardAlpha" operator="out"/>
<feColorMatrix type="matrix" values="0 0 0 0 0 0 0 0 0 0 0 0 0 0 0 0 0 0 0.25 0"/>
<feBlend mode="normal" in2="BackgroundImageFix" result="effect1_dropShadow_114_3954"/>
<feBlend mode="normal" in="SourceGraphic" in2="effect1_dropShadow_114_3954" result="shape"/>
</filter>
</defs>
</svg>
